<svg xmlns="http://www.w3.org/2000/svg" xmlns:xlink="http://www.w3.org/1999/xlink" width="500" zoomAndPan="magnify" viewBox="0 0 375 374.999991" height="500" preserveAspectRatio="xMidYMid meet" version="1.0"><defs><g/><clipPath id="5adf505613"><path d="M 130.582031 50 L 261.082031 50 L 261.082031 199.859375 L 130.582031 199.859375 Z M 130.582031 50 " clip-rule="nonzero"/></clipPath><clipPath id="8bd0d3800c"><path d="M 100.703125 106.796875 L 304.703125 106.796875 L 304.703125 135 L 100.703125 135 Z M 100.703125 106.796875 " clip-rule="nonzero"/></clipPath><clipPath id="76e7191d82"><path d="M 100.703125 116 L 304.703125 116 L 304.703125 147 L 100.703125 147 Z M 100.703125 116 " clip-rule="nonzero"/></clipPath><clipPath id="4be9d3563a"><path d="M 100.703125 120 L 304.703125 120 L 304.703125 159 L 100.703125 159 Z M 100.703125 120 " clip-rule="nonzero"/></clipPath><clipPath id="b84909e21c"><path d="M 100.703125 124 L 304.703125 124 L 304.703125 171 L 100.703125 171 Z M 100.703125 124 " clip-rule="nonzero"/></clipPath><clipPath id="3386483bb0"><path d="M 100.703125 128 L 304.703125 128 L 304.703125 184 L 100.703125 184 Z M 100.703125 128 " clip-rule="nonzero"/></clipPath></defs><rect x="-37.5" width="450" fill="#ffffff" y="-37.499999" height="449.999989" fill-opacity="1"/><rect x="-37.5" width="450" fill="#ffffff" y="-37.499999" height="449.999989" fill-opacity="1"/><rect x="-37.5" width="450" fill="#000000" y="-37.499999" height="449.999989" fill-opacity="1"/><g clip-path="url(#5adf505613)"><path fill="#ffffff" d="M 165.015625 50.394531 C 159.480469 51.449219 153.859375 54.144531 150.347656 57.382812 C 148.867188 58.738281 147.871094 60.519531 147.871094 61.777344 C 147.871094 62.261719 148.195312 63.617188 148.582031 64.769531 C 148.964844 65.925781 149.292969 66.980469 149.292969 67.121094 C 149.292969 67.242188 148.765625 67.683594 148.136719 68.109375 C 145.316406 69.953125 142.597656 73.234375 141.667969 75.867188 C 140.953125 77.890625 141.097656 80.542969 142.03125 82.527344 C 143.128906 84.875 146.332031 87.328125 150.191406 88.765625 C 151.265625 89.167969 151.410156 89.292969 151.425781 89.796875 C 151.449219 90.179688 151.242188 90.667969 150.816406 91.195312 C 150.453125 91.640625 149.78125 92.550781 149.316406 93.21875 C 148.871094 93.886719 147.976562 95.0625 147.367188 95.851562 C 146.757812 96.621094 146.109375 97.695312 145.949219 98.199219 C 145.664062 99.070312 145.382812 99.617188 143.839844 102.511719 C 143.492188 103.179688 143.207031 103.992188 143.207031 104.398438 C 143.207031 104.78125 142.882812 105.753906 142.480469 106.585938 C 141.972656 107.617188 141.730469 108.449219 141.648438 109.359375 C 141.566406 110.167969 141.40625 110.773438 141.183594 111.039062 C 140.550781 111.75 138.75 115.777344 138.75 116.464844 C 138.75 116.605469 138.503906 117.054688 138.21875 117.4375 C 137.46875 118.40625 135.683594 122.214844 135.480469 123.25 C 135.378906 123.710938 135.054688 124.421875 134.769531 124.828125 C 134.386719 125.3125 134.179688 125.859375 134.121094 126.589844 C 134.078125 127.175781 133.671875 128.695312 133.246094 129.96875 C 132.660156 131.730469 132.335938 132.398438 131.929688 132.683594 C 131.121094 133.269531 130.773438 134.261719 131.039062 135.234375 C 131.199219 135.824219 131.199219 136.167969 131.015625 136.46875 C 130.589844 137.277344 130.894531 139.0625 131.789062 140.945312 C 132.78125 143.050781 134 144.445312 135.15625 144.792969 C 135.621094 144.933594 136.457031 145.480469 137.105469 146.066406 C 138.707031 147.527344 139.640625 148.132812 143.210938 149.957031 C 147.1875 151.960938 150.554688 153.15625 151.792969 152.972656 L 152.683594 152.832031 L 152.949219 153.703125 C 153.089844 154.1875 153.234375 155.300781 153.25 156.191406 C 153.292969 157.082031 153.433594 158.175781 153.617188 158.621094 C 153.839844 159.207031 153.960938 160.566406 154.042969 163.359375 C 154.183594 167.855469 154.207031 167.9375 155.828125 168.804688 C 157.71875 169.816406 157.796875 169.941406 157.941406 171.886719 C 158 172.835938 158.121094 175.933594 158.226562 178.769531 C 158.445312 185.246094 158.570312 187.433594 158.953125 191.121094 C 159.257812 194.136719 159.96875 198.554688 160.273438 199.382812 L 160.453125 199.828125 L 194.945312 199.828125 L 196.34375 197.703125 C 198.800781 194.019531 200.445312 190.617188 204.195312 181.503906 C 204.828125 179.941406 205.941406 177.433594 206.671875 175.933594 C 208.296875 172.515625 209.554688 169.558594 209.554688 169.132812 C 209.554688 168.808594 209.574219 168.808594 209.9375 169.132812 C 210.304688 169.457031 210.34375 169.457031 210.75 168.867188 C 211.417969 167.9375 211.785156 166.925781 211.785156 165.953125 C 211.785156 165.488281 211.945312 164.539062 212.128906 163.886719 C 212.371094 163.015625 212.476562 161.863281 212.496094 159.917969 C 212.496094 156.71875 212.597656 156.476562 214.320312 155.382812 C 214.929688 155 215.964844 154.351562 216.613281 153.925781 C 218.09375 152.972656 220.042969 151.011719 220.507812 149.957031 C 220.855469 149.207031 220.855469 149.066406 220.589844 148.394531 C 220.40625 148.011719 219.839844 146.492188 219.289062 145.054688 C 218.742188 143.597656 217.566406 140.457031 216.652344 138.070312 C 210.890625 122.984375 210.101562 120.167969 209.652344 113.667969 L 209.53125 111.847656 L 211.273438 109.761719 C 212.246094 108.628906 213.097656 107.695312 213.199219 107.695312 C 213.28125 107.695312 214.03125 108.324219 214.847656 109.074219 C 215.675781 109.824219 217.078125 111.054688 217.96875 111.828125 C 218.863281 112.574219 220.203125 113.769531 220.933594 114.480469 C 221.804688 115.308594 222.515625 115.796875 222.960938 115.898438 C 223.347656 115.976562 223.792969 116.199219 223.953125 116.402344 C 224.117188 116.605469 224.828125 116.992188 225.519531 117.273438 C 226.210938 117.539062 227.730469 118.328125 228.886719 119.015625 C 230.875 120.191406 231.097656 120.269531 233.105469 120.554688 C 237.589844 121.183594 238.402344 120.921875 239.660156 118.40625 C 240.0625 117.597656 240.386719 116.785156 240.386719 116.605469 C 240.386719 116.402344 240.734375 115.8125 241.160156 115.308594 C 241.953125 114.335938 243.835938 111.316406 243.835938 110.992188 C 243.835938 110.890625 244.101562 110.648438 244.445312 110.464844 C 245.195312 110.019531 246.679688 107.144531 246.679688 106.132812 C 246.679688 105.523438 246.457031 105.179688 245.199219 103.863281 C 242.457031 101.011719 242.238281 100.644531 242.199219 99.066406 C 242.15625 96.695312 241.8125 94.691406 241.324219 93.921875 C 240.859375 93.195312 240.207031 90.988281 239.78125 88.65625 C 239.660156 87.929688 239.457031 86.894531 239.355469 86.367188 C 239.253906 85.839844 239.171875 85.09375 239.171875 84.707031 C 239.171875 83.738281 239.011719 83.410156 238.320312 83.066406 C 237.628906 82.703125 235.925781 81.203125 235.925781 80.941406 C 235.925781 80.859375 237.261719 79.199219 238.886719 77.273438 C 242.335938 73.222656 243.714844 72.070312 245.945312 71.421875 C 248.804688 70.613281 249.253906 70.410156 249.902344 69.742188 L 250.570312 69.050781 L 251.421875 69.941406 C 252.335938 70.871094 252.761719 71.011719 253.128906 70.570312 C 253.3125 70.367188 253.171875 70.105469 252.5 69.476562 C 252.03125 69.03125 251.503906 68.605469 251.300781 68.546875 C 250.996094 68.441406 251.035156 68.261719 251.566406 66.964844 C 252.820312 63.871094 253.753906 63.136719 255.054688 64.152344 C 255.339844 64.371094 255.6875 64.554688 255.804688 64.554688 C 255.945312 64.554688 256.578125 64.128906 257.1875 63.601562 C 258.28125 62.671875 258.40625 62.691406 257.9375 63.785156 C 257.734375 64.269531 258.503906 64.960938 259.273438 64.960938 C 260.003906 64.960938 261.082031 64.007812 261.082031 63.339844 C 261.082031 62.285156 260.148438 61.660156 259.273438 62.105469 C 258.503906 62.53125 258.421875 62.0625 258.949219 60.300781 C 259.234375 59.371094 259.457031 58.480469 259.457031 58.320312 C 259.457031 58.15625 259.132812 57.328125 258.746094 56.457031 C 258.363281 55.582031 258.035156 54.632812 258.035156 54.308594 C 258.035156 53.4375 257.773438 53.171875 256.800781 53.011719 C 256.3125 52.929688 255.359375 52.707031 254.6875 52.527344 C 253.210938 52.121094 252.011719 52.121094 251.117188 52.484375 C 249.71875 53.050781 249.515625 53.070312 249.515625 52.644531 C 249.515625 51.714844 248.054688 51.265625 247.101562 51.917969 C 246.472656 52.363281 246.007812 53.515625 246.25 54.003906 C 246.59375 54.632812 247.058594 54.933594 247.324219 54.671875 C 247.871094 54.121094 247.851562 54.488281 247.28125 55.277344 C 246.957031 55.722656 246.671875 56.210938 246.671875 56.351562 C 246.671875 56.472656 246.957031 56.835938 247.28125 57.121094 C 248.113281 57.871094 248.132812 57.832031 246.734375 59.347656 C 246.550781 59.53125 246.0625 59.796875 245.675781 59.898438 C 245.269531 60 244.683594 60.261719 244.359375 60.464844 L 243.75 60.828125 L 243.058594 60.058594 C 242.265625 59.167969 242.207031 59.167969 241.597656 59.65625 C 241.191406 59.976562 241.171875 60.078125 241.394531 60.527344 C 241.535156 60.789062 241.839844 61.214844 242.0625 61.457031 C 242.429688 61.882812 242.445312 61.941406 242.164062 62.265625 C 241.636719 62.875 241.230469 63.804688 240.683594 65.769531 C 240.015625 68.117188 239.546875 69.070312 238.472656 70.121094 C 238.027344 70.585938 235.796875 72.976562 233.523438 75.445312 L 229.40625 79.941406 L 228.65625 79.621094 C 227.5 79.113281 226.910156 79.054688 226.585938 79.4375 C 226.15625 79.941406 226.238281 81.078125 226.726562 81.726562 L 227.152344 82.3125 L 225.832031 83.808594 C 225.105469 84.640625 224.007812 85.835938 223.378906 86.464844 L 222.242188 87.617188 L 221.792969 86.96875 C 221.53125 86.585938 221.429688 86.261719 221.550781 86.199219 C 222.101562 85.855469 220.78125 84.195312 219.949219 84.195312 C 219.277344 84.195312 218.058594 85.414062 218.058594 86.082031 C 218.058594 86.769531 219.277344 87.738281 219.925781 87.578125 C 220.210938 87.496094 220.558594 87.621094 220.941406 87.945312 L 221.507812 88.429688 L 220.839844 88.875 C 220.496094 89.117188 219.722656 89.765625 219.175781 90.3125 L 218.140625 91.285156 L 217.695312 90.675781 C 216.4375 88.996094 214.265625 86.75 211.566406 84.335938 C 206.59375 79.902344 206.617188 79.902344 202.839844 79.195312 C 201.886719 79.03125 200.242188 78.628906 199.1875 78.304688 C 196.734375 77.578125 194.519531 77.109375 193.445312 77.109375 C 192.289062 77.109375 187.015625 76.21875 186.484375 75.933594 C 185.550781 75.449219 185.53125 75.1875 186.265625 74.03125 C 188.71875 70.226562 190.460938 65.40625 190.460938 62.46875 C 190.460938 60.019531 189.125 57.613281 187.234375 56.617188 C 185.613281 55.765625 183.890625 55.828125 179.6875 56.878906 L 176.378906 57.710938 L 176.035156 57.226562 C 175.832031 56.984375 175.121094 55.847656 174.453125 54.734375 C 172.6875 51.800781 172.101562 51.050781 171.144531 50.5625 C 169.96875 49.96875 167.613281 49.890625 165.015625 50.394531 Z M 228.523438 92.109375 C 228.199219 92.636719 230.003906 94.277344 230.773438 94.113281 C 231.808594 93.910156 233.289062 95.085938 233.289062 96.117188 C 233.289062 97.253906 233.738281 98.8125 234.203125 99.359375 L 234.667969 99.886719 L 234.203125 100.515625 C 233.9375 100.839844 233.429688 101.8125 233.0625 102.640625 C 232.699219 103.472656 232.335938 104.242188 232.253906 104.34375 C 232.089844 104.527344 230.285156 103.554688 228.621094 102.398438 C 227.402344 101.550781 223.609375 98.390625 222.859375 97.601562 L 222.269531 96.992188 L 223.164062 95.921875 C 223.648438 95.3125 224.824219 93.9375 225.757812 92.824219 L 227.464844 90.796875 L 228.050781 91.347656 C 228.382812 91.644531 228.605469 91.988281 228.523438 92.109375 Z M 155.621094 118.433594 C 156.253906 118.898438 156.617188 119.34375 156.71875 119.75 C 156.960938 120.820312 158.078125 123.578125 158.625 124.507812 C 158.949219 125.058594 159.234375 125.867188 159.292969 126.511719 L 159.417969 127.585938 L 158.238281 129.042969 C 156.738281 130.847656 155.542969 132.710938 154.710938 134.488281 L 154.078125 135.847656 L 152.234375 135.722656 C 151.242188 135.664062 149.960938 135.480469 149.414062 135.320312 C 148.863281 135.15625 148.195312 135.035156 147.949219 135.035156 C 147.707031 135.035156 147.304688 134.851562 147.039062 134.652344 L 146.550781 134.269531 L 147.082031 133.679688 C 148.074219 132.625 148.339844 132.023438 148.398438 130.703125 C 148.457031 129.308594 148.964844 128.171875 150.164062 126.695312 C 151.054688 125.601562 151.441406 124.832031 151.746094 123.578125 C 152.03125 122.402344 154.300781 117.5625 154.523438 117.664062 C 154.609375 117.703125 155.09375 118.046875 155.621094 118.433594 Z M 155.621094 118.433594 " fill-opacity="1" fill-rule="nonzero"/></g><path fill="#004aad" d="M 135.8125 159.320312 C 134.878906 160.917969 133.207031 162.027344 131.285156 162.523438 L 131.285156 150.308594 C 131.882812 150.429688 132.4375 150.636719 132.914062 150.800781 C 134.585938 151.398438 138.070312 155.46875 135.8125 159.320312 Z M 123.019531 160.5625 C 119.03125 156.925781 117.40625 151.414062 121.671875 146.800781 C 123.648438 144.667969 126.507812 142.1875 129.328125 139.585938 L 129.328125 145.816406 C 125.625 146.589844 123.449219 150.253906 123.550781 153.28125 C 123.664062 156.863281 125.234375 159.453125 126.539062 159.984375 C 126.539062 159.984375 127.398438 160.59375 127.765625 159.785156 C 127.882812 159.503906 127.753906 159.25 127.445312 159.011719 C 127.128906 158.773438 123.539062 156.476562 126.070312 152.824219 C 127.167969 151.246094 128.28125 150.542969 129.328125 150.304688 L 129.328125 162.804688 C 127.121094 162.886719 124.808594 162.195312 123.019531 160.5625 Z M 136.457031 119.214844 C 140.339844 122.160156 135.183594 129.328125 131.285156 133.675781 L 131.285156 129.121094 C 131.925781 122.988281 133.34375 116.855469 136.457031 119.214844 Z M 131.523438 145.707031 C 131.445312 145.699219 131.363281 145.695312 131.285156 145.691406 L 131.285156 137.746094 C 133.84375 135.292969 136.171875 132.777344 137.542969 130.398438 C 141.402344 123.6875 140.851562 116.484375 136.414062 115.273438 C 131.980469 114.054688 129.191406 125.09375 129.328125 130.375 L 129.328125 135.746094 C 128.898438 136.167969 128.53125 136.515625 128.25 136.765625 C 124.933594 139.726562 117.628906 144.464844 116.707031 150.292969 C 115.480469 158.03125 122.8125 163.839844 129.328125 164.097656 L 129.328125 175.121094 C 129.328125 175.121094 128.992188 177.714844 126.441406 177.714844 C 122.21875 177.714844 121.707031 175.597656 121.707031 175.597656 C 121.707031 175.597656 124.8125 176.246094 125.992188 173.496094 C 125.992188 173.496094 127.304688 169.597656 123.410156 168.464844 C 119.523438 167.332031 117.609375 170.988281 118.191406 173.996094 C 118.695312 176.574219 121.042969 179.402344 126.308594 179.449219 C 130.699219 179.488281 131.285156 176.59375 131.285156 175.121094 L 131.285156 164.007812 C 131.742188 163.941406 132.1875 163.84375 132.621094 163.710938 C 139.613281 161.605469 140.664062 154.71875 139.875 152.308594 C 138.929688 149.445312 136.542969 146.203125 131.523438 145.707031 " fill-opacity="1" fill-rule="nonzero"/><path fill="#004aad" d="M 296.261719 117.835938 C 293.753906 115.671875 293.507812 115.164062 293.308594 114.015625 L 293.308594 113.214844 L 292.65625 113.734375 L 292.65625 128.382812 C 292.554688 128.3125 291.113281 127.382812 289.054688 128.15625 C 286.917969 128.953125 287.484375 130.476562 287.808594 130.914062 C 288.167969 131.390625 289.957031 132.328125 292.113281 131.167969 C 292.113281 131.167969 293.328125 130.621094 293.3125 128.90625 C 293.308594 128.5 293.316406 128.320312 293.308594 126.585938 L 293.308594 117.351562 C 294.007812 117.578125 299.144531 119.488281 296.480469 125.464844 C 296.480469 125.464844 300.15625 121.207031 296.261719 117.835938 " fill-opacity="1" fill-rule="nonzero"/><path fill="#004aad" d="M 226.742188 144.660156 C 224.273438 142.527344 222.902344 141.199219 222.09375 140.121094 L 222.09375 134.664062 C 223.378906 135.085938 232.132812 138.335938 229.472656 148.105469 C 228.910156 146.941406 228.03125 145.773438 226.742188 144.660156 Z M 228.007812 135.644531 C 222.984375 131.304688 222.496094 130.289062 222.09375 127.984375 L 222.09375 126.378906 L 220.78125 127.417969 L 220.78125 156.773438 C 220.578125 156.632812 217.691406 154.769531 213.566406 156.3125 C 209.28125 157.914062 210.421875 160.96875 211.074219 161.839844 C 211.792969 162.800781 215.378906 164.675781 219.699219 162.351562 C 219.699219 162.351562 222.132812 161.261719 222.101562 157.820312 C 222.09375 157.007812 222.109375 156.644531 222.09375 153.175781 L 222.09375 144.1875 C 225.136719 145.582031 231.664062 149.890625 227.1875 159.945312 C 227.1875 159.945312 231.851562 154.535156 229.816406 148.925781 C 231.492188 145.996094 233.488281 140.378906 228.007812 135.644531 " fill-opacity="1" fill-rule="nonzero"/><path fill="#004aad" d="M 169.609375 176.378906 C 169.78125 175.765625 169.878906 175.058594 169.871094 174.25 C 169.863281 173.234375 169.867188 134.816406 169.867188 134.816406 L 168.21875 136.121094 L 168.21875 172.933594 C 168.195312 172.917969 168.144531 172.882812 168.070312 172.835938 C 166.578125 171.652344 164.195312 171.042969 161.613281 171.367188 C 157.527344 171.878906 154.5 174.519531 154.84375 177.273438 C 155.1875 180.019531 158.773438 181.835938 162.855469 181.324219 C 164.578125 181.105469 166.113281 180.511719 167.285156 179.6875 C 167.441406 179.582031 167.628906 179.449219 167.832031 179.269531 C 168.808594 178.441406 169.449219 177.4375 169.609375 176.378906 " fill-opacity="1" fill-rule="nonzero"/><path fill="#004aad" d="M 246.835938 146.984375 C 245.023438 147.210938 243.429688 146.40625 243.277344 145.183594 C 243.125 143.960938 244.46875 142.789062 246.285156 142.5625 C 248.101562 142.332031 249.691406 143.136719 249.84375 144.363281 C 249.996094 145.582031 248.648438 146.757812 246.835938 146.984375 Z M 251.308594 119.039062 L 250.292969 119.84375 L 250.292969 142.632812 L 250.195312 142.578125 C 249.273438 141.839844 247.796875 141.464844 246.199219 141.664062 C 243.671875 141.980469 241.796875 143.621094 242.007812 145.320312 C 242.21875 147.023438 244.441406 148.144531 246.96875 147.828125 C 248.035156 147.695312 248.988281 147.328125 249.714844 146.816406 C 249.808594 146.75 249.925781 146.667969 250.046875 146.558594 C 250.652344 146.046875 251.050781 145.421875 251.152344 144.769531 C 251.253906 144.386719 251.316406 143.949219 251.3125 143.453125 C 251.304688 142.820312 251.308594 119.039062 251.308594 119.039062 " fill-opacity="1" fill-rule="nonzero"/><path fill="#004aad" d="M 190.332031 162.289062 C 187.558594 162.636719 185.117188 161.40625 184.882812 159.535156 C 184.652344 157.667969 186.710938 155.871094 189.484375 155.527344 C 192.257812 155.175781 194.695312 156.410156 194.929688 158.277344 C 195.164062 160.144531 193.101562 161.941406 190.332031 162.289062 Z M 197.171875 119.546875 L 195.613281 120.785156 L 195.613281 155.640625 C 195.589844 155.625 195.542969 155.59375 195.464844 155.546875 C 194.054688 154.425781 191.800781 153.851562 189.355469 154.15625 C 185.488281 154.640625 182.617188 157.144531 182.945312 159.746094 C 183.269531 162.351562 186.667969 164.070312 190.535156 163.582031 C 192.164062 163.382812 193.617188 162.816406 194.726562 162.035156 C 194.875 161.9375 195.050781 161.808594 195.242188 161.640625 C 196.167969 160.855469 196.773438 159.902344 196.925781 158.902344 C 197.085938 158.320312 197.183594 157.652344 197.175781 156.886719 C 197.164062 155.921875 197.171875 119.546875 197.171875 119.546875 " fill-opacity="1" fill-rule="nonzero"/><path fill="#004aad" d="M 279.421875 133.996094 L 279.421875 115.472656 L 264.929688 117.820312 L 264.929688 135.703125 C 264.296875 135.433594 263.5 135.324219 262.660156 135.429688 C 260.789062 135.664062 259.402344 136.875 259.558594 138.132812 C 259.714844 139.390625 261.355469 140.222656 263.226562 139.988281 C 264.015625 139.890625 264.71875 139.613281 265.257812 139.238281 C 265.328125 139.191406 265.414062 139.128906 265.507812 139.046875 C 265.953125 138.664062 266.246094 138.207031 266.320312 137.722656 C 266.398438 137.441406 266.445312 137.117188 266.441406 136.746094 C 266.441406 136.703125 266.441406 136.503906 266.441406 136.175781 L 266.441406 122.65625 L 277.914062 120.644531 L 277.914062 133.523438 C 277.28125 133.253906 276.484375 133.140625 275.644531 133.25 C 273.773438 133.480469 272.386719 134.695312 272.542969 135.953125 C 272.699219 137.210938 274.34375 138.042969 276.210938 137.808594 C 277 137.707031 277.703125 137.433594 278.242188 137.058594 C 278.3125 137.011719 278.398438 136.949219 278.488281 136.867188 C 278.9375 136.488281 279.226562 136.027344 279.304688 135.542969 C 279.375 135.277344 279.421875 134.976562 279.421875 134.636719 L 279.421875 134.570312 C 279.421875 134.523438 279.421875 134.324219 279.421875 133.996094 " fill-opacity="1" fill-rule="nonzero"/><g clip-path="url(#8bd0d3800c)"><path fill="#004aad" d="M 304.730469 112.933594 C 236.734375 110.109375 168.730469 163.566406 100.726562 106.839844 L 100.726562 108.800781 C 168.730469 165.03125 236.734375 111.078125 304.730469 113.414062 L 304.730469 112.933594 " fill-opacity="1" fill-rule="nonzero"/></g><g clip-path="url(#76e7191d82)"><path fill="#004aad" d="M 304.730469 116.75 C 236.734375 117.851562 168.730469 175.242188 100.726562 122.445312 L 100.726562 124.398438 C 168.730469 176.703125 236.734375 118.824219 304.730469 117.226562 L 304.730469 116.75 " fill-opacity="1" fill-rule="nonzero"/></g><g clip-path="url(#4be9d3563a)"><path fill="#004aad" d="M 304.730469 120.566406 C 236.734375 125.597656 168.730469 186.914062 100.726562 138.046875 L 100.726562 140.003906 C 168.730469 188.375 236.734375 126.566406 304.730469 121.042969 L 304.730469 120.566406 " fill-opacity="1" fill-rule="nonzero"/></g><g clip-path="url(#b84909e21c)"><path fill="#004aad" d="M 304.730469 124.382812 C 236.734375 133.339844 168.730469 198.585938 100.726562 153.648438 L 100.726562 155.601562 C 168.730469 200.046875 236.734375 134.3125 304.730469 124.859375 L 304.730469 124.382812 " fill-opacity="1" fill-rule="nonzero"/></g><g clip-path="url(#3386483bb0)"><path fill="#004aad" d="M 304.730469 128.195312 C 236.734375 141.085938 168.730469 210.261719 100.726562 169.25 L 100.726562 171.203125 C 168.730469 211.722656 236.734375 142.054688 304.730469 128.675781 L 304.730469 128.195312 " fill-opacity="1" fill-rule="nonzero"/></g><g fill="#ffffff" fill-opacity="1"><g transform="translate(83.437499, 256.22017)"><g><path d="M 19.984375 -11.398438 C 18.199219 -6.574219 14.171875 -4.75 11.132812 -4.75 C 8.132812 -4.75 5.167969 -6.535156 5.167969 -9.042969 C 5.167969 -9.613281 5.242188 -10.257812 5.472656 -10.90625 L 10.257812 -24.242188 C 11.171875 -26.75 12.726562 -27.128906 13.640625 -27.128906 C 14.515625 -27.128906 15.121094 -26.597656 15.121094 -25.457031 C 15.121094 -24.925781 14.96875 -24.242188 14.667969 -23.480469 C 14.550781 -23.214844 14.515625 -22.949219 14.515625 -22.683594 C 14.515625 -21.351562 15.804688 -20.25 17.289062 -20.25 C 18.617188 -20.25 20.097656 -21.164062 20.785156 -23.671875 C 21.050781 -24.660156 21.164062 -25.570312 21.164062 -26.367188 C 21.164062 -30.546875 17.859375 -32.980469 13.527344 -32.980469 C 10.753906 -32.980469 6.460938 -31.839844 4.445312 -26.140625 L -0.304688 -12.578125 C -0.722656 -11.398438 -0.949219 -10.105469 -0.949219 -8.96875 C -0.949219 -3.988281 3.609375 0 10.21875 0 C 15.503906 0 22.074219 -2.699219 24.429688 -10.144531 C 24.507812 -10.449219 24.542969 -10.714844 24.542969 -10.941406 C 24.542969 -12.273438 23.367188 -13.03125 22.1875 -13.03125 C 21.203125 -13.03125 20.25 -12.539062 19.984375 -11.398438 Z M 19.984375 -11.398438 "/></g></g></g><g fill="#ffffff" fill-opacity="1"><g transform="translate(102.015699, 256.22017)"><g><path d="M 27.925781 -12.652344 C 26.179688 -7.75 23.746094 -4.789062 21.277344 -4.789062 C 20.328125 -4.789062 19.71875 -5.28125 19.71875 -6.382812 C 19.71875 -6.914062 19.832031 -7.523438 20.097656 -8.28125 L 27.050781 -28.722656 C 27.203125 -29.21875 27.28125 -29.636719 27.28125 -30.054688 C 27.28125 -31.839844 25.914062 -32.980469 24.429688 -32.980469 C 23.175781 -32.980469 21.847656 -32.183594 21.164062 -30.242188 C 20.023438 -26.976562 18.578125 -22.417969 17.476562 -19.148438 L 10.90625 -19.148438 L 14.171875 -28.6875 C 14.363281 -29.257812 14.4375 -29.75 14.4375 -30.242188 C 14.4375 -31.992188 13.183594 -32.980469 11.816406 -32.980469 C 10.488281 -32.980469 9.003906 -32.066406 8.433594 -30.09375 L 4.597656 -19.148438 L 2.925781 -19.148438 C 0.609375 -19.148438 -0.34375 -17.933594 -0.34375 -16.71875 C -0.34375 -15.539062 0.570312 -14.363281 2.015625 -14.363281 L 2.925781 -14.363281 L -0.683594 -3.835938 C -0.835938 -3.417969 -0.910156 -3 -0.910156 -2.660156 C -0.910156 -1.027344 0.53125 0 2.050781 0 C 3.304688 0 4.636719 -0.722656 5.167969 -2.433594 C 6.34375 -5.925781 8.054688 -10.867188 9.234375 -14.363281 C 11.625 -14.363281 13.601562 -14.398438 15.882812 -14.398438 C 15.160156 -12.308594 14.742188 -11.207031 14.058594 -9.234375 C 13.753906 -8.28125 13.601562 -7.332031 13.601562 -6.460938 C 13.601562 -2.433594 16.871094 0 20.820312 0 C 26.519531 0 30.28125 -4.824219 32.523438 -11.550781 C 32.601562 -11.777344 32.675781 -12.234375 32.675781 -12.425781 C 32.675781 -13.601562 31.535156 -14.25 30.359375 -14.25 C 29.292969 -14.25 28.230469 -13.753906 27.925781 -12.652344 Z M 27.925781 -12.652344 "/></g></g></g><g fill="#ffffff" fill-opacity="1"><g transform="translate(128.116363, 256.22017)"><g><path d="M 26.710938 -10.90625 C 24.960938 -6.117188 22.910156 -4.824219 21.351562 -4.824219 C 20.667969 -4.824219 20.25 -5.167969 20.25 -5.660156 C 20.25 -5.925781 20.328125 -6.191406 20.441406 -6.535156 L 22.304688 -11.246094 C 22.722656 -12.273438 22.910156 -13.222656 22.910156 -14.097656 C 22.910156 -15.691406 22.339844 -16.90625 21.429688 -17.859375 C 23.785156 -19.492188 25.34375 -23.328125 25.34375 -26.027344 C 25.34375 -30.015625 21.886719 -32.257812 18.3125 -32.449219 C 18.125 -32.449219 17.859375 -32.484375 17.515625 -32.484375 C 16.566406 -32.484375 15.121094 -32.332031 13.792969 -31.382812 C 13.601562 -32.257812 12.5 -32.980469 11.285156 -32.980469 C 10.105469 -32.980469 8.777344 -32.371094 8.167969 -30.660156 L -1.40625 -3.496094 C -1.519531 -3.117188 -1.597656 -2.773438 -1.597656 -2.46875 C -1.597656 -0.910156 -0.191406 0 1.328125 0 C 2.621094 0 3.953125 -0.683594 4.484375 -2.164062 L 9.574219 -16.527344 C 9.652344 -15.652344 10.144531 -14.058594 12.386719 -14.058594 C 12.996094 -14.058594 13.753906 -14.210938 14.703125 -14.515625 C 15.652344 -14.476562 16.222656 -13.867188 16.222656 -12.996094 C 16.222656 -12.539062 16.148438 -12.082031 15.957031 -11.589844 L 14.550781 -8.015625 C 14.210938 -7.105469 14.019531 -6.191406 14.019531 -5.394531 C 14.019531 -2.089844 16.679688 0 20.441406 0 C 24.582031 0 28.953125 -2.546875 31.382812 -10.070312 C 31.460938 -10.371094 31.535156 -10.675781 31.535156 -10.941406 C 31.535156 -12.273438 30.433594 -13.144531 29.292969 -13.144531 C 28.269531 -13.144531 27.203125 -12.5 26.710938 -10.90625 Z M 10.488281 -19.148438 L 12.308594 -24.355469 C 13.222656 -26.066406 14.933594 -27.28125 16.605469 -27.28125 C 18.046875 -27.28125 19.035156 -26.367188 19.035156 -25 C 19.035156 -23.480469 18.160156 -21.238281 16.792969 -20.480469 C 15.996094 -20.785156 15.199219 -20.933594 14.398438 -20.933594 C 12.84375 -20.933594 11.398438 -20.367188 10.488281 -19.148438 Z M 10.488281 -19.148438 "/></g></g></g><g fill="#ffffff" fill-opacity="1"><g transform="translate(153.609152, 256.22017)"><g><path d="M 25.039062 -11.929688 C 24.242188 -9.613281 22.378906 -8.054688 20.097656 -7.902344 C 20.136719 -8.054688 20.175781 -8.167969 20.25 -8.320312 L 25.152344 -22.605469 C 25.457031 -23.519531 25.609375 -24.355469 25.609375 -25.230469 C 25.609375 -29.75 21.351562 -32.980469 16.414062 -32.980469 C 12.726562 -32.980469 8.132812 -31.230469 6.191406 -25.609375 L 1.179688 -11.019531 C 0.796875 -9.878906 0.53125 -8.664062 0.53125 -7.597656 C 0.53125 -2.699219 4.636719 0 9.234375 0 C 12.082031 0 15.085938 -0.796875 17.515625 -3.609375 C 18.199219 -3.496094 18.960938 -3.382812 19.757812 -3.382812 C 24.429688 -3.382812 28.457031 -6.535156 29.484375 -10.601562 C 29.558594 -10.941406 29.597656 -11.246094 29.597656 -11.511719 C 29.597656 -12.957031 28.535156 -13.640625 27.433594 -13.640625 C 26.40625 -13.640625 25.34375 -13.070312 25.039062 -11.929688 Z M 9.421875 -4.789062 C 7.75 -4.789062 6.421875 -5.925781 6.421875 -7.597656 C 6.421875 -7.980469 6.496094 -8.472656 6.6875 -8.96875 L 12.082031 -24.582031 C 12.957031 -27.128906 14.894531 -28.191406 16.527344 -28.191406 C 18.238281 -28.191406 19.605469 -27.015625 19.605469 -25.378906 C 19.605469 -25 19.53125 -24.621094 19.378906 -24.164062 L 15.464844 -12.652344 C 15.160156 -12.765625 14.667969 -12.878906 14.285156 -12.878906 C 12.425781 -12.878906 10.941406 -11.398438 10.941406 -9.574219 C 10.941406 -8.433594 11.472656 -7.675781 12.652344 -6.308594 C 11.742188 -5.320312 10.601562 -4.789062 9.421875 -4.789062 Z M 9.421875 -4.789062 "/></g></g></g><g fill="#ffffff" fill-opacity="1"><g transform="translate(177.012375, 256.22017)"><g><path d="M 35.941406 -11.246094 C 34.308594 -6.800781 32.257812 -4.824219 30.472656 -4.824219 C 29.710938 -4.824219 29.21875 -5.320312 29.21875 -6.078125 C 29.21875 -6.421875 29.332031 -6.839844 29.484375 -7.296875 L 35.601562 -24.011719 C 35.90625 -24.8125 36.09375 -25.683594 36.09375 -26.75 C 36.09375 -30.320312 33.472656 -32.980469 29.597656 -32.980469 C 27.320312 -32.980469 24.582031 -32.066406 22.796875 -30.207031 C 21.621094 -31.992188 20.480469 -32.980469 17.894531 -32.980469 C 15.464844 -32.980469 13.867188 -31.460938 13.714844 -31.269531 C 13.414062 -32.21875 12.347656 -32.980469 10.90625 -32.980469 C 9.800781 -32.980469 8.28125 -32.523438 7.75 -31.042969 L -2.015625 -3.683594 C -2.164062 -3.304688 -2.164062 -2.964844 -2.164062 -2.621094 C -2.164062 -0.949219 -0.835938 0 0.644531 0 C 1.9375 0 3.34375 -0.761719 3.953125 -2.433594 L 11.285156 -22.871094 C 12.195312 -25.417969 13.601562 -26.75 15.3125 -26.75 C 17.289062 -26.75 17.820312 -25.230469 16.753906 -22.265625 L 10.105469 -3.988281 C 9.917969 -3.457031 9.800781 -2.964844 9.800781 -2.546875 C 9.800781 -0.910156 11.132812 0 12.578125 0 C 13.90625 0 15.3125 -0.761719 15.917969 -2.46875 L 23.023438 -22.378906 C 23.9375 -24.960938 25.457031 -26.710938 27.320312 -26.710938 C 28.800781 -26.710938 29.789062 -25.417969 29.105469 -23.558594 L 23.785156 -8.851562 C 23.441406 -7.863281 23.253906 -6.800781 23.253906 -5.925781 C 23.253906 -2.164062 26.253906 0 29.941406 0 C 34.121094 0 38.109375 -2.734375 40.464844 -10.144531 C 40.539062 -10.449219 40.617188 -10.714844 40.617188 -10.980469 C 40.617188 -12.308594 39.476562 -13.070312 38.335938 -13.070312 C 37.347656 -13.070312 36.398438 -12.5 35.941406 -11.246094 Z M 35.941406 -11.246094 "/></g></g></g><g fill="#ffffff" fill-opacity="1"><g transform="translate(211.6233, 256.22017)"><g><path d="M 13.679688 -9.765625 C 12.726562 -7.144531 10.335938 -4.9375 8.207031 -4.9375 C 6.992188 -4.9375 6.191406 -5.8125 6.191406 -6.992188 C 6.191406 -7.332031 6.269531 -7.789062 6.421875 -8.246094 L 13.753906 -28.6875 C 13.945312 -29.257812 14.019531 -29.75 14.019531 -30.242188 C 14.019531 -31.992188 12.765625 -32.980469 11.398438 -32.980469 C 10.070312 -32.980469 8.699219 -32.03125 8.015625 -30.09375 L 0.457031 -9.117188 C 0.113281 -8.167969 -0.0390625 -7.257812 -0.0390625 -6.382812 C -0.0390625 -2.582031 2.964844 0 6.761719 0 C 9.460938 0 12.082031 -1.597656 13.832031 -3.304688 C 15.046875 -1.179688 17.476562 0 20.25 0 C 25.949219 0 29.675781 -4.863281 31.992188 -11.742188 C 32.105469 -12.042969 32.144531 -12.308594 32.144531 -12.578125 C 32.144531 -13.832031 31.117188 -14.550781 29.976562 -14.550781 C 28.953125 -14.550781 27.851562 -13.945312 27.394531 -12.652344 C 25.609375 -7.75 23.175781 -4.789062 20.785156 -4.789062 C 19.71875 -4.789062 19.074219 -5.394531 19.074219 -6.34375 C 19.074219 -6.6875 19.113281 -7.066406 19.261719 -7.484375 L 26.902344 -28.6875 C 27.089844 -29.257812 27.167969 -29.75 27.167969 -30.207031 C 27.167969 -31.992188 25.875 -32.980469 24.429688 -32.980469 C 23.0625 -32.980469 21.65625 -32.03125 20.972656 -30.09375 Z M 13.679688 -9.765625 "/></g></g></g><g fill="#ffffff" fill-opacity="1"><g transform="translate(237.192077, 256.22017)"><g><path d="M 18.84375 -32.980469 C 15.085938 -32.980469 11.285156 -30.851562 10.03125 -27.015625 C 9.800781 -26.253906 9.652344 -25.53125 9.652344 -24.8125 C 9.652344 -21.503906 11.929688 -18.996094 14.097656 -16.335938 C 15.882812 -14.171875 17.554688 -12.386719 17.554688 -10.105469 C 17.554688 -7.027344 14.855469 -5.167969 12.386719 -5.167969 C 9.652344 -5.207031 7.484375 -6.800781 7.523438 -9.5 C 7.5625 -9.6875 7.5625 -9.878906 7.5625 -10.03125 C 7.5625 -12.195312 6.117188 -13.183594 4.636719 -13.183594 C 3.117188 -13.183594 1.558594 -12.082031 1.558594 -9.953125 C 1.367188 -3.914062 6.6875 0 12.425781 0 C 18.503906 0 24.011719 -4.789062 24.011719 -10.636719 C 24.011719 -14.589844 21.390625 -17.628906 19.074219 -20.214844 L 18.617188 -20.707031 C 17.171875 -22.265625 16.035156 -23.976562 16.035156 -25.378906 C 16.035156 -27.050781 17.972656 -27.773438 18.84375 -27.738281 C 20.023438 -27.660156 20.859375 -26.824219 21.503906 -25.53125 C 22 -24.355469 22.988281 -23.824219 24.011719 -23.824219 C 25.378906 -23.824219 26.75 -24.847656 26.75 -26.597656 C 26.75 -26.976562 26.710938 -27.320312 26.597656 -27.738281 C 25.722656 -30.699219 22.722656 -32.980469 18.84375 -32.980469 Z M 18.84375 -32.980469 "/></g></g></g><g fill="#ffffff" fill-opacity="1"><g transform="translate(263.026804, 256.22017)"><g><path d="M 7.980469 -30.054688 L -0.988281 -4.292969 C -1.179688 -3.722656 -1.253906 -3.230469 -1.253906 -2.734375 C -1.253906 -0.988281 0 0 1.367188 0 C 2.699219 0 4.066406 -0.949219 4.75 -2.886719 L 13.714844 -28.648438 C 13.90625 -29.21875 13.980469 -29.710938 13.980469 -30.207031 C 13.980469 -31.953125 12.726562 -32.941406 11.359375 -32.941406 C 10.03125 -32.941406 8.550781 -32.03125 7.980469 -30.054688 Z M 7.980469 -30.054688 "/></g></g></g><g fill="#ffffff" fill-opacity="1"><g transform="translate(272.980771, 256.22017)"><g><path d="M 19.984375 -11.398438 C 18.199219 -6.574219 14.171875 -4.75 11.132812 -4.75 C 8.132812 -4.75 5.167969 -6.535156 5.167969 -9.042969 C 5.167969 -9.613281 5.242188 -10.257812 5.472656 -10.90625 L 10.257812 -24.242188 C 11.171875 -26.75 12.726562 -27.128906 13.640625 -27.128906 C 14.515625 -27.128906 15.121094 -26.597656 15.121094 -25.457031 C 15.121094 -24.925781 14.96875 -24.242188 14.667969 -23.480469 C 14.550781 -23.214844 14.515625 -22.949219 14.515625 -22.683594 C 14.515625 -21.351562 15.804688 -20.25 17.289062 -20.25 C 18.617188 -20.25 20.097656 -21.164062 20.785156 -23.671875 C 21.050781 -24.660156 21.164062 -25.570312 21.164062 -26.367188 C 21.164062 -30.546875 17.859375 -32.980469 13.527344 -32.980469 C 10.753906 -32.980469 6.460938 -31.839844 4.445312 -26.140625 L -0.304688 -12.578125 C -0.722656 -11.398438 -0.949219 -10.105469 -0.949219 -8.96875 C -0.949219 -3.988281 3.609375 0 10.21875 0 C 15.503906 0 22.074219 -2.699219 24.429688 -10.144531 C 24.507812 -10.449219 24.542969 -10.714844 24.542969 -10.941406 C 24.542969 -12.273438 23.367188 -13.03125 22.1875 -13.03125 C 21.203125 -13.03125 20.25 -12.539062 19.984375 -11.398438 Z M 19.984375 -11.398438 "/></g></g></g></svg>